<svg height="24" viewBox="0 0 74 47" fill="none" xmlns="http://www.w3.org/2000/svg">
    <path d="M0.0142055 23.608C-0.438795 11.681 10.0082 0.658972 21.9472 0.515972C28.0322 -0.00302834 33.9522 2.35997 38.5572 6.21397C36.6682 8.29097 34.7462 10.344 32.6932 12.266C28.6392 9.80297 23.7582 7.92597 19.0202 9.59297C11.3782 11.769 6.75021 20.792 9.57821 28.268C11.9202 36.076 21.4172 40.361 28.8602 37.081C32.7142 35.701 35.2552 32.145 36.3702 28.324C31.9532 28.236 27.5352 28.291 23.1182 28.169C23.1072 25.541 23.0962 22.923 23.1072 20.295C30.4732 20.284 37.8502 20.262 45.2272 20.328C45.6802 26.767 44.7302 33.658 40.5442 38.826C34.8122 46.203 24.2222 48.368 15.6072 45.474C6.46421 42.471 -0.184795 33.26 0.0142055 23.608Z" fill="white"/>
    <path d="M59.9903 13.668C62.1773 13.668 64.3633 13.668 66.5603 13.668C66.5723 15.866 66.5933 18.075 66.6053 20.272C68.8023 20.294 71.0113 20.305 73.2093 20.316C73.2093 22.514 73.2093 24.7 73.2093 26.898C71.0123 26.909 68.8033 26.92 66.6053 26.931C66.5833 29.14 66.5723 31.337 66.5603 33.546C64.3633 33.535 62.1643 33.546 59.9783 33.546C59.9573 31.337 59.9573 29.14 59.9343 26.942C57.7373 26.919 55.5283 26.909 53.3303 26.897C53.3303 24.699 53.3303 22.513 53.3303 20.315C55.5283 20.304 57.7263 20.293 59.9343 20.271C59.9453 18.075 59.9673 15.866 59.9903 13.668Z" fill="white"/>
</svg>