<svg viewBox="0 0 18 18">
    <path fill="#FFFFFF" d="M9,1.622c2.403,0,2.688,0.009,3.637,0.052c0.877,0.04,1.354,0.187,1.671,0.31   c0.42,0.163,0.72,0.358,1.035,0.673c0.315,0.315,0.51,0.615,0.673,1.035c0.123,0.317,0.27,0.794,0.31,1.671   C16.369,6.312,16.378,6.597,16.378,9s-0.009,2.688-0.052,3.637c-0.04,0.877-0.187,1.354-0.31,1.671   c-0.163,0.42-0.358,0.72-0.673,1.035c-0.315,0.315-0.615,0.51-1.035,0.673c-0.317,0.123-0.794,0.27-1.671,0.31   c-0.949,0.043-1.233,0.052-3.637,0.052s-2.688-0.009-3.637-0.052c-0.877-0.04-1.354-0.187-1.671-0.31   c-0.42-0.163-0.72-0.358-1.035-0.673c-0.315-0.315-0.51-0.615-0.673-1.035c-0.123-0.317-0.27-0.794-0.31-1.671   C1.631,11.688,1.622,11.403,1.622,9s0.009-2.688,0.052-3.637c0.04-0.877,0.187-1.354,0.31-1.671c0.163-0.42,0.358-0.72,0.673-1.035   c0.315-0.315,0.615-0.51,1.035-0.673c0.317-0.123,0.794-0.27,1.671-0.31C6.312,1.631,6.597,1.622,9,1.622 M9,0   C6.556,0,6.249,0.01,5.289,0.054C4.331,0.098,3.677,0.25,3.105,0.472C2.513,0.702,2.011,1.01,1.511,1.511   c-0.5,0.5-0.808,1.002-1.038,1.594C0.25,3.677,0.098,4.331,0.054,5.289C0.01,6.249,0,6.556,0,9c0,2.444,0.01,2.751,0.054,3.711   c0.044,0.958,0.196,1.612,0.418,2.185c0.23,0.592,0.538,1.094,1.038,1.594c0.5,0.5,1.002,0.808,1.594,1.038   c0.572,0.222,1.227,0.375,2.185,0.418C6.249,17.99,6.556,18,9,18s2.751-0.01,3.711-0.054c0.958-0.044,1.612-0.196,2.185-0.418   c0.592-0.23,1.094-0.538,1.594-1.038c0.5-0.5,0.808-1.002,1.038-1.594c0.222-0.572,0.375-1.227,0.418-2.185   C17.99,11.751,18,11.444,18,9s-0.01-2.751-0.054-3.711c-0.044-0.958-0.196-1.612-0.418-2.185c-0.23-0.592-0.538-1.094-1.038-1.594   c-0.5-0.5-1.002-0.808-1.594-1.038c-0.572-0.222-1.227-0.375-2.185-0.418C11.751,0.01,11.444,0,9,0L9,0z" />
    <path fill="#FFFFFF" d="M9,4.378C6.448,4.378,4.378,6.448,4.378,9S6.448,13.622,9,13.622S13.622,11.552,13.622,9   S11.552,4.378,9,4.378z M9,12c-1.657,0-3-1.343-3-3c0-1.657,1.343-3,3-3s3,1.343,3,3C12,10.657,10.657,12,9,12z" />
    <circle fill="#FFFFFF" cx="13.804" cy="4.196" r="1.08" />
</svg>